<mxfile host="app.diagrams.net" modified="2021-10-08T00:19:46.299Z" agent="5.0 (Macintosh; Intel Mac OS X 10_15_7) AppleWebKit/537.36 (KHTML, like Gecko) Chrome/94.0.4606.61 Safari/537.36" etag="p_ka7sQgMb5mz-mABcOM" version="15.4.3" type="github">
  <diagram id="prtHgNgQTEPvFCAcTncT" name="Page-1">
    <mxGraphModel dx="822" dy="508" grid="1" gridSize="10" guides="1" tooltips="1" connect="1" arrows="1" fold="1" page="1" pageScale="1" pageWidth="827" pageHeight="1169" math="0" shadow="0">
      <root>
        <mxCell id="0" />
        <mxCell id="1" parent="0" />
        <mxCell id="dNxyNK7c78bLwvsdeMH5-11" value="MyPage" style="swimlane;html=1;startSize=20;horizontal=1;containerType=tree;glass=0;" parent="1" vertex="1">
          <mxGeometry x="50" y="30" width="680" height="410" as="geometry" />
        </mxCell>
        <mxCell id="U9Wdd-GjaHNPV5aVxIAM-1" value="" style="ellipse;whiteSpace=wrap;html=1;aspect=fixed;" vertex="1" parent="dNxyNK7c78bLwvsdeMH5-11">
          <mxGeometry x="264" y="40" width="160" height="160" as="geometry" />
        </mxCell>
        <mxCell id="U9Wdd-GjaHNPV5aVxIAM-2" value="3D/2D Globe tunring" style="text;html=1;align=center;verticalAlign=middle;resizable=0;points=[];autosize=1;strokeColor=none;fillColor=none;" vertex="1" parent="dNxyNK7c78bLwvsdeMH5-11">
          <mxGeometry x="284" y="90" width="120" height="20" as="geometry" />
        </mxCell>
        <mxCell id="U9Wdd-GjaHNPV5aVxIAM-3" value="U. S. A" style="shape=document;whiteSpace=wrap;html=1;boundedLbl=1;" vertex="1" parent="dNxyNK7c78bLwvsdeMH5-11">
          <mxGeometry x="20" y="230" width="140" height="100" as="geometry" />
        </mxCell>
        <mxCell id="U9Wdd-GjaHNPV5aVxIAM-5" value="" style="curved=1;endArrow=classic;html=1;rounded=0;edgeStyle=orthogonalEdgeStyle;entryX=0.583;entryY=0;entryDx=0;entryDy=0;entryPerimeter=0;" edge="1" parent="dNxyNK7c78bLwvsdeMH5-11" target="U9Wdd-GjaHNPV5aVxIAM-3">
          <mxGeometry width="50" height="50" relative="1" as="geometry">
            <mxPoint x="323" y="130" as="sourcePoint" />
            <mxPoint x="370" y="160" as="targetPoint" />
            <Array as="points">
              <mxPoint x="323" y="160" />
              <mxPoint x="140" y="160" />
            </Array>
          </mxGeometry>
        </mxCell>
        <mxCell id="U9Wdd-GjaHNPV5aVxIAM-6" value="once clicked on the country, will show &lt;br&gt;the country shape and info here" style="text;html=1;align=center;verticalAlign=middle;resizable=0;points=[];autosize=1;strokeColor=none;fillColor=none;" vertex="1" parent="dNxyNK7c78bLwvsdeMH5-11">
          <mxGeometry x="10" y="120" width="210" height="30" as="geometry" />
        </mxCell>
        <mxCell id="U9Wdd-GjaHNPV5aVxIAM-11" value="" style="curved=1;endArrow=classic;html=1;rounded=0;edgeStyle=orthogonalEdgeStyle;" edge="1" parent="dNxyNK7c78bLwvsdeMH5-11">
          <mxGeometry width="50" height="50" relative="1" as="geometry">
            <mxPoint x="520" y="280" as="sourcePoint" />
            <mxPoint x="620" y="230" as="targetPoint" />
            <Array as="points">
              <mxPoint x="620" y="280" />
              <mxPoint x="570" y="230" />
            </Array>
          </mxGeometry>
        </mxCell>
        <mxCell id="U9Wdd-GjaHNPV5aVxIAM-13" value="" style="endArrow=none;html=1;rounded=0;edgeStyle=orthogonalEdgeStyle;" edge="1" parent="dNxyNK7c78bLwvsdeMH5-11">
          <mxGeometry width="50" height="50" relative="1" as="geometry">
            <mxPoint x="490" y="290" as="sourcePoint" />
            <mxPoint x="640" y="230" as="targetPoint" />
          </mxGeometry>
        </mxCell>
        <mxCell id="U9Wdd-GjaHNPV5aVxIAM-14" value="" style="ellipse;whiteSpace=wrap;html=1;aspect=fixed;" vertex="1" parent="dNxyNK7c78bLwvsdeMH5-11">
          <mxGeometry x="550" y="320" width="60" height="60" as="geometry" />
        </mxCell>
        <mxCell id="U9Wdd-GjaHNPV5aVxIAM-15" value="" style="triangle;whiteSpace=wrap;html=1;rotation=45;" vertex="1" parent="dNxyNK7c78bLwvsdeMH5-11">
          <mxGeometry x="550" y="320" width="30" height="30" as="geometry" />
        </mxCell>
        <mxCell id="U9Wdd-GjaHNPV5aVxIAM-16" value="" style="swimlane;startSize=0;" vertex="1" parent="dNxyNK7c78bLwvsdeMH5-11">
          <mxGeometry x="220" y="230" width="240" height="130" as="geometry" />
        </mxCell>
        <mxCell id="U9Wdd-GjaHNPV5aVxIAM-17" value="" style="verticalLabelPosition=bottom;verticalAlign=top;html=1;shape=mxgraph.basic.obtuse_triangle;dx=0.08;fillColor=#d5e8d4;strokeColor=#82b366;" vertex="1" parent="U9Wdd-GjaHNPV5aVxIAM-16">
          <mxGeometry x="50" y="75" width="40" height="40" as="geometry" />
        </mxCell>
        <mxCell id="U9Wdd-GjaHNPV5aVxIAM-19" value="" style="whiteSpace=wrap;html=1;shape=mxgraph.basic.pointed_oval;fillColor=#fff2cc;strokeColor=#d6b656;" vertex="1" parent="U9Wdd-GjaHNPV5aVxIAM-16">
          <mxGeometry x="50" y="15" width="50" height="100" as="geometry" />
        </mxCell>
        <mxCell id="U9Wdd-GjaHNPV5aVxIAM-23" value="" style="whiteSpace=wrap;html=1;shape=mxgraph.basic.pointed_oval;fillColor=#fff2cc;strokeColor=#d6b656;" vertex="1" parent="U9Wdd-GjaHNPV5aVxIAM-16">
          <mxGeometry x="140" y="15" width="50" height="100" as="geometry" />
        </mxCell>
        <mxCell id="U9Wdd-GjaHNPV5aVxIAM-24" value="" style="verticalLabelPosition=bottom;verticalAlign=top;html=1;shape=mxgraph.basic.obtuse_triangle;dx=0.13;rotation=-105;fillColor=#d5e8d4;strokeColor=#82b366;" vertex="1" parent="U9Wdd-GjaHNPV5aVxIAM-16">
          <mxGeometry x="158.66000000000003" y="80" width="40" height="30" as="geometry" />
        </mxCell>
        <mxCell id="U9Wdd-GjaHNPV5aVxIAM-25" value="" style="verticalLabelPosition=bottom;verticalAlign=top;html=1;shape=mxgraph.basic.obtuse_triangle;dx=0.08;fillColor=#d5e8d4;strokeColor=#82b366;" vertex="1" parent="U9Wdd-GjaHNPV5aVxIAM-16">
          <mxGeometry x="130" y="65" width="40" height="50" as="geometry" />
        </mxCell>
        <mxCell id="U9Wdd-GjaHNPV5aVxIAM-28" value="Gif showing the crops changing &lt;br&gt;from many to less, or vice versa" style="text;html=1;align=center;verticalAlign=middle;resizable=0;points=[];autosize=1;strokeColor=none;fillColor=none;" vertex="1" parent="U9Wdd-GjaHNPV5aVxIAM-16">
          <mxGeometry x="34" y="10" width="180" height="30" as="geometry" />
        </mxCell>
        <mxCell id="U9Wdd-GjaHNPV5aVxIAM-29" value="" style="ellipse;whiteSpace=wrap;html=1;aspect=fixed;" vertex="1" parent="dNxyNK7c78bLwvsdeMH5-11">
          <mxGeometry x="500" y="40" width="10" height="10" as="geometry" />
        </mxCell>
        <mxCell id="U9Wdd-GjaHNPV5aVxIAM-32" value="" style="ellipse;whiteSpace=wrap;html=1;aspect=fixed;" vertex="1" parent="dNxyNK7c78bLwvsdeMH5-11">
          <mxGeometry x="610" y="40" width="10" height="10" as="geometry" />
        </mxCell>
        <mxCell id="U9Wdd-GjaHNPV5aVxIAM-31" value="" style="ellipse;whiteSpace=wrap;html=1;aspect=fixed;" vertex="1" parent="dNxyNK7c78bLwvsdeMH5-11">
          <mxGeometry x="570" y="40" width="10" height="10" as="geometry" />
        </mxCell>
        <mxCell id="U9Wdd-GjaHNPV5aVxIAM-30" value="" style="ellipse;whiteSpace=wrap;html=1;aspect=fixed;" vertex="1" parent="dNxyNK7c78bLwvsdeMH5-11">
          <mxGeometry x="540" y="40" width="10" height="10" as="geometry" />
        </mxCell>
        <mxCell id="U9Wdd-GjaHNPV5aVxIAM-42" value="" style="endArrow=classic;html=1;rounded=0;edgeStyle=orthogonalEdgeStyle;" edge="1" parent="dNxyNK7c78bLwvsdeMH5-11">
          <mxGeometry relative="1" as="geometry">
            <mxPoint x="230" y="380" as="sourcePoint" />
            <mxPoint x="470" y="380" as="targetPoint" />
          </mxGeometry>
        </mxCell>
        <mxCell id="U9Wdd-GjaHNPV5aVxIAM-43" value="Scroll Bar to change the forecast year" style="edgeLabel;resizable=0;html=1;align=center;verticalAlign=middle;" connectable="0" vertex="1" parent="U9Wdd-GjaHNPV5aVxIAM-42">
          <mxGeometry relative="1" as="geometry" />
        </mxCell>
        <mxCell id="U9Wdd-GjaHNPV5aVxIAM-45" value="A" style="text;html=1;align=center;verticalAlign=middle;resizable=0;points=[];autosize=1;strokeColor=none;fillColor=none;" vertex="1" parent="dNxyNK7c78bLwvsdeMH5-11">
          <mxGeometry x="495" y="50" width="20" height="20" as="geometry" />
        </mxCell>
        <mxCell id="U9Wdd-GjaHNPV5aVxIAM-46" value="B" style="text;html=1;align=center;verticalAlign=middle;resizable=0;points=[];autosize=1;strokeColor=none;fillColor=none;" vertex="1" parent="dNxyNK7c78bLwvsdeMH5-11">
          <mxGeometry x="535" y="50" width="20" height="20" as="geometry" />
        </mxCell>
        <mxCell id="U9Wdd-GjaHNPV5aVxIAM-52" value="4 scenario of CO2 forecast&lt;br&gt;will change the whole data below/" style="text;html=1;align=center;verticalAlign=middle;resizable=0;points=[];autosize=1;strokeColor=none;fillColor=none;" vertex="1" parent="dNxyNK7c78bLwvsdeMH5-11">
          <mxGeometry x="470" y="75" width="190" height="30" as="geometry" />
        </mxCell>
        <mxCell id="U9Wdd-GjaHNPV5aVxIAM-18" value="" style="verticalLabelPosition=bottom;verticalAlign=top;html=1;shape=mxgraph.basic.obtuse_triangle;dx=0.13;rotation=-105;fillColor=#d5e8d4;strokeColor=#82b366;" vertex="1" parent="1">
          <mxGeometry x="338.66" y="350" width="40" height="30" as="geometry" />
        </mxCell>
        <mxCell id="U9Wdd-GjaHNPV5aVxIAM-47" value="C" style="text;html=1;align=center;verticalAlign=middle;resizable=0;points=[];autosize=1;strokeColor=none;fillColor=none;" vertex="1" parent="1">
          <mxGeometry x="615" y="80" width="20" height="20" as="geometry" />
        </mxCell>
        <mxCell id="U9Wdd-GjaHNPV5aVxIAM-51" value="D" style="text;html=1;align=center;verticalAlign=middle;resizable=0;points=[];autosize=1;strokeColor=none;fillColor=none;" vertex="1" parent="1">
          <mxGeometry x="654" y="80" width="20" height="20" as="geometry" />
        </mxCell>
      </root>
    </mxGraphModel>
  </diagram>
</mxfile>
